%TF.GenerationSoftware,KiCad,Pcbnew,(6.0.10)*%
%TF.CreationDate,2023-02-17T09:21:36-08:00*%
%TF.ProjectId,Exercise2,45786572-6369-4736-9532-2e6b69636164,rev?*%
%TF.SameCoordinates,Original*%
%TF.FileFunction,Copper,L1,Top*%
%TF.FilePolarity,Positive*%
%FSLAX46Y46*%
G04 Gerber Fmt 4.6, Leading zero omitted, Abs format (unit mm)*
G04 Created by KiCad (PCBNEW (6.0.10)) date 2023-02-17 09:21:36*
%MOMM*%
%LPD*%
G01*
G04 APERTURE LIST*
G04 Aperture macros list*
%AMRoundRect*
0 Rectangle with rounded corners*
0 $1 Rounding radius*
0 $2 $3 $4 $5 $6 $7 $8 $9 X,Y pos of 4 corners*
0 Add a 4 corners polygon primitive as box body*
4,1,4,$2,$3,$4,$5,$6,$7,$8,$9,$2,$3,0*
0 Add four circle primitives for the rounded corners*
1,1,$1+$1,$2,$3*
1,1,$1+$1,$4,$5*
1,1,$1+$1,$6,$7*
1,1,$1+$1,$8,$9*
0 Add four rect primitives between the rounded corners*
20,1,$1+$1,$2,$3,$4,$5,0*
20,1,$1+$1,$4,$5,$6,$7,0*
20,1,$1+$1,$6,$7,$8,$9,0*
20,1,$1+$1,$8,$9,$2,$3,0*%
G04 Aperture macros list end*
%TA.AperFunction,SMDPad,CuDef*%
%ADD10RoundRect,0.250000X0.337500X0.475000X-0.337500X0.475000X-0.337500X-0.475000X0.337500X-0.475000X0*%
%TD*%
%TA.AperFunction,SMDPad,CuDef*%
%ADD11RoundRect,0.250000X-0.450000X0.350000X-0.450000X-0.350000X0.450000X-0.350000X0.450000X0.350000X0*%
%TD*%
%TA.AperFunction,SMDPad,CuDef*%
%ADD12RoundRect,0.150000X-0.825000X-0.150000X0.825000X-0.150000X0.825000X0.150000X-0.825000X0.150000X0*%
%TD*%
%TA.AperFunction,SMDPad,CuDef*%
%ADD13R,2.290000X3.000000*%
%TD*%
%TA.AperFunction,SMDPad,CuDef*%
%ADD14RoundRect,0.250000X-0.350000X-0.450000X0.350000X-0.450000X0.350000X0.450000X-0.350000X0.450000X0*%
%TD*%
%TA.AperFunction,ComponentPad*%
%ADD15R,3.000000X3.000000*%
%TD*%
%TA.AperFunction,ComponentPad*%
%ADD16C,3.000000*%
%TD*%
%TA.AperFunction,SMDPad,CuDef*%
%ADD17RoundRect,0.250001X0.462499X0.624999X-0.462499X0.624999X-0.462499X-0.624999X0.462499X-0.624999X0*%
%TD*%
%TA.AperFunction,SMDPad,CuDef*%
%ADD18RoundRect,0.250000X0.425000X-0.537500X0.425000X0.537500X-0.425000X0.537500X-0.425000X-0.537500X0*%
%TD*%
%TA.AperFunction,SMDPad,CuDef*%
%ADD19RoundRect,0.250001X-0.624999X0.462499X-0.624999X-0.462499X0.624999X-0.462499X0.624999X0.462499X0*%
%TD*%
%TA.AperFunction,ViaPad*%
%ADD20C,0.800000*%
%TD*%
%TA.AperFunction,Conductor*%
%ADD21C,0.254000*%
%TD*%
%TA.AperFunction,Conductor*%
%ADD22C,0.508000*%
%TD*%
G04 APERTURE END LIST*
D10*
%TO.P,C2,1*%
%TO.N,Net-(C2-Pad1)*%
X113612500Y-73660000D03*
%TO.P,C2,2*%
%TO.N,GND*%
X111537500Y-73660000D03*
%TD*%
D11*
%TO.P,R4,1*%
%TO.N,/pin_3*%
X99060000Y-94520000D03*
%TO.P,R4,2*%
%TO.N,Net-(D2-Pad2)*%
X99060000Y-96520000D03*
%TD*%
D12*
%TO.P,U1,1,GND*%
%TO.N,GND*%
X111825000Y-79375000D03*
%TO.P,U1,2,TR*%
%TO.N,/pin_2*%
X111825000Y-80645000D03*
%TO.P,U1,3,Q*%
%TO.N,/pin_3*%
X111825000Y-81915000D03*
%TO.P,U1,4,R*%
%TO.N,+9V*%
X111825000Y-83185000D03*
%TO.P,U1,5,CV*%
%TO.N,Net-(C2-Pad1)*%
X116775000Y-83185000D03*
%TO.P,U1,6,THR*%
%TO.N,/pin_2*%
X116775000Y-81915000D03*
%TO.P,U1,7,DIS*%
%TO.N,/pin_7*%
X116775000Y-80645000D03*
%TO.P,U1,8,VCC*%
%TO.N,+9V*%
X116775000Y-79375000D03*
D13*
%TO.P,U1,9*%
%TO.N,N/C*%
X114300000Y-81280000D03*
%TD*%
D14*
%TO.P,R1,1*%
%TO.N,+9V*%
X132620000Y-70495000D03*
%TO.P,R1,2*%
%TO.N,/pin_7*%
X134620000Y-70495000D03*
%TD*%
D15*
%TO.P,J1,1,Pin_1*%
%TO.N,+9V*%
X88900000Y-81280000D03*
D16*
%TO.P,J1,2,Pin_2*%
%TO.N,GND*%
X88900000Y-76200000D03*
%TD*%
D17*
%TO.P,D2,1,K*%
%TO.N,GND*%
X111647500Y-96520000D03*
%TO.P,D2,2,A*%
%TO.N,Net-(D2-Pad2)*%
X108672500Y-96520000D03*
%TD*%
D11*
%TO.P,R3,1*%
%TO.N,Net-(D1-Pad1)*%
X103070000Y-67040000D03*
%TO.P,R3,2*%
%TO.N,/pin_3*%
X103070000Y-69040000D03*
%TD*%
D18*
%TO.P,C1,1*%
%TO.N,/pin_2*%
X101600000Y-80177500D03*
%TO.P,C1,2*%
%TO.N,GND*%
X101600000Y-77302500D03*
%TD*%
D19*
%TO.P,D1,1,K*%
%TO.N,Net-(D1-Pad1)*%
X116840000Y-67092500D03*
%TO.P,D1,2,A*%
%TO.N,+9V*%
X116840000Y-70067500D03*
%TD*%
D11*
%TO.P,R2,1*%
%TO.N,/pin_7*%
X134210000Y-79740000D03*
%TO.P,R2,2*%
%TO.N,/pin_2*%
X134210000Y-81740000D03*
%TD*%
D20*
%TO.N,/pin_2*%
X106680000Y-81280000D03*
X114300000Y-88900000D03*
%TO.N,GND*%
X109220000Y-78740000D03*
X109220000Y-86360000D03*
%TO.N,Net-(C2-Pad1)*%
X125000000Y-84000000D03*
X115500000Y-73500000D03*
%TO.N,+9V*%
X121920000Y-78740000D03*
X121920000Y-86360000D03*
%TO.N,/pin_3*%
X96520000Y-81280000D03*
X96520000Y-73660000D03*
%TD*%
D21*
%TO.N,/pin_2*%
X106045000Y-80645000D02*
X107315000Y-80645000D01*
X107315000Y-80645000D02*
X111825000Y-80645000D01*
X126365000Y-81915000D02*
X125095000Y-81915000D01*
X127000000Y-82500000D02*
X126500000Y-82000000D01*
X127000000Y-88900000D02*
X127000000Y-82500000D01*
X128905000Y-81915000D02*
X126365000Y-81915000D01*
X125095000Y-81915000D02*
X116775000Y-81915000D01*
X114300000Y-88900000D02*
X127000000Y-88900000D01*
X134210000Y-81740000D02*
X134035000Y-81915000D01*
X102067500Y-80645000D02*
X106045000Y-80645000D01*
X101600000Y-80177500D02*
X102067500Y-80645000D01*
X134035000Y-81915000D02*
X128905000Y-81915000D01*
X106045000Y-80645000D02*
X106680000Y-81280000D01*
%TO.N,GND*%
X111647500Y-96520000D02*
X111647500Y-88787500D01*
X111647500Y-88787500D02*
X109220000Y-86360000D01*
X103672500Y-79375000D02*
X107315000Y-79375000D01*
X107315000Y-79375000D02*
X111825000Y-79375000D01*
X107950000Y-78740000D02*
X107315000Y-79375000D01*
X109220000Y-78740000D02*
X107950000Y-78740000D01*
D22*
X111537500Y-73660000D02*
X111537500Y-79087500D01*
D21*
X100497500Y-76200000D02*
X101600000Y-77302500D01*
D22*
X111537500Y-79087500D02*
X111825000Y-79375000D01*
D21*
X88900000Y-76200000D02*
X100497500Y-76200000D01*
X101600000Y-77302500D02*
X103672500Y-79375000D01*
%TO.N,Net-(C2-Pad1)*%
X117590000Y-84000000D02*
X125000000Y-84000000D01*
X113772500Y-73500000D02*
X113612500Y-73660000D01*
X115500000Y-73500000D02*
X113772500Y-73500000D01*
X116775000Y-83185000D02*
X117590000Y-84000000D01*
%TO.N,Net-(D1-Pad1)*%
X103122500Y-67092500D02*
X116840000Y-67092500D01*
X103070000Y-67040000D02*
X103122500Y-67092500D01*
%TO.N,+9V*%
X111825000Y-83185000D02*
X109315000Y-83185000D01*
D22*
X116840000Y-79310000D02*
X116775000Y-79375000D01*
X132620000Y-70495000D02*
X117267500Y-70495000D01*
D21*
X115000000Y-86360000D02*
X121920000Y-86360000D01*
X111825000Y-83185000D02*
X115000000Y-86360000D01*
D22*
X116840000Y-70067500D02*
X116840000Y-79310000D01*
X117267500Y-70495000D02*
X116840000Y-70067500D01*
D21*
X117410000Y-78740000D02*
X116775000Y-79375000D01*
X121920000Y-78740000D02*
X117410000Y-78740000D01*
X109315000Y-83185000D02*
X106000000Y-86500000D01*
X106000000Y-86500000D02*
X94120000Y-86500000D01*
X94120000Y-86500000D02*
X88900000Y-81280000D01*
%TO.N,Net-(D2-Pad2)*%
X108672500Y-96520000D02*
X99060000Y-96520000D01*
%TO.N,/pin_7*%
X116943000Y-80813000D02*
X133137000Y-80813000D01*
X134620000Y-79330000D02*
X134210000Y-79740000D01*
X134620000Y-70495000D02*
X134620000Y-79330000D01*
X133137000Y-80813000D02*
X134210000Y-79740000D01*
X116775000Y-80645000D02*
X116943000Y-80813000D01*
%TO.N,/pin_3*%
X108085000Y-81915000D02*
X106000000Y-84000000D01*
X106000000Y-84000000D02*
X99240000Y-84000000D01*
X96520000Y-73660000D02*
X99060000Y-71120000D01*
X81280000Y-71120000D02*
X99060000Y-71120000D01*
X99060000Y-71120000D02*
X101140000Y-69040000D01*
X98580000Y-95000000D02*
X99060000Y-94520000D01*
X101140000Y-69040000D02*
X103070000Y-69040000D01*
X99240000Y-84000000D02*
X96520000Y-81280000D01*
X111825000Y-81915000D02*
X108085000Y-81915000D01*
X81500000Y-95000000D02*
X98580000Y-95000000D01*
X81500000Y-71340000D02*
X81500000Y-95000000D01*
X81280000Y-71120000D02*
X81500000Y-71340000D01*
%TD*%
M02*
