%TF.GenerationSoftware,KiCad,Pcbnew,(6.0.10)*%
%TF.CreationDate,2023-02-17T09:21:36-08:00*%
%TF.ProjectId,Exercise2,45786572-6369-4736-9532-2e6b69636164,rev?*%
%TF.SameCoordinates,Original*%
%TF.FileFunction,Legend,Top*%
%TF.FilePolarity,Positive*%
%FSLAX46Y46*%
G04 Gerber Fmt 4.6, Leading zero omitted, Abs format (unit mm)*
G04 Created by KiCad (PCBNEW (6.0.10)) date 2023-02-17 09:21:36*
%MOMM*%
%LPD*%
G01*
G04 APERTURE LIST*
%ADD10C,0.150000*%
%ADD11C,0.120000*%
G04 APERTURE END LIST*
D10*
%TO.C,C2*%
X112408333Y-75697142D02*
X112360714Y-75744761D01*
X112217857Y-75792380D01*
X112122619Y-75792380D01*
X111979761Y-75744761D01*
X111884523Y-75649523D01*
X111836904Y-75554285D01*
X111789285Y-75363809D01*
X111789285Y-75220952D01*
X111836904Y-75030476D01*
X111884523Y-74935238D01*
X111979761Y-74840000D01*
X112122619Y-74792380D01*
X112217857Y-74792380D01*
X112360714Y-74840000D01*
X112408333Y-74887619D01*
X112789285Y-74887619D02*
X112836904Y-74840000D01*
X112932142Y-74792380D01*
X113170238Y-74792380D01*
X113265476Y-74840000D01*
X113313095Y-74887619D01*
X113360714Y-74982857D01*
X113360714Y-75078095D01*
X113313095Y-75220952D01*
X112741666Y-75792380D01*
X113360714Y-75792380D01*
%TO.C,R4*%
X101162380Y-95686666D02*
X100686190Y-96020000D01*
X101162380Y-96258095D02*
X100162380Y-96258095D01*
X100162380Y-95877142D01*
X100210000Y-95781904D01*
X100257619Y-95734285D01*
X100352857Y-95686666D01*
X100495714Y-95686666D01*
X100590952Y-95734285D01*
X100638571Y-95781904D01*
X100686190Y-95877142D01*
X100686190Y-96258095D01*
X100495714Y-94829523D02*
X101162380Y-94829523D01*
X100114761Y-95067619D02*
X100829047Y-95305714D01*
X100829047Y-94686666D01*
%TO.C,U1*%
X113538095Y-77332380D02*
X113538095Y-78141904D01*
X113585714Y-78237142D01*
X113633333Y-78284761D01*
X113728571Y-78332380D01*
X113919047Y-78332380D01*
X114014285Y-78284761D01*
X114061904Y-78237142D01*
X114109523Y-78141904D01*
X114109523Y-77332380D01*
X115109523Y-78332380D02*
X114538095Y-78332380D01*
X114823809Y-78332380D02*
X114823809Y-77332380D01*
X114728571Y-77475238D01*
X114633333Y-77570476D01*
X114538095Y-77618095D01*
%TO.C,R1*%
X133453333Y-69297380D02*
X133120000Y-68821190D01*
X132881904Y-69297380D02*
X132881904Y-68297380D01*
X133262857Y-68297380D01*
X133358095Y-68345000D01*
X133405714Y-68392619D01*
X133453333Y-68487857D01*
X133453333Y-68630714D01*
X133405714Y-68725952D01*
X133358095Y-68773571D01*
X133262857Y-68821190D01*
X132881904Y-68821190D01*
X134405714Y-69297380D02*
X133834285Y-69297380D01*
X134120000Y-69297380D02*
X134120000Y-68297380D01*
X134024761Y-68440238D01*
X133929523Y-68535476D01*
X133834285Y-68583095D01*
%TO.C,J1*%
X83272380Y-79073333D02*
X83986666Y-79073333D01*
X84129523Y-79120952D01*
X84224761Y-79216190D01*
X84272380Y-79359047D01*
X84272380Y-79454285D01*
X84272380Y-78073333D02*
X84272380Y-78644761D01*
X84272380Y-78359047D02*
X83272380Y-78359047D01*
X83415238Y-78454285D01*
X83510476Y-78549523D01*
X83558095Y-78644761D01*
%TO.C,D2*%
X109421904Y-99392380D02*
X109421904Y-98392380D01*
X109660000Y-98392380D01*
X109802857Y-98440000D01*
X109898095Y-98535238D01*
X109945714Y-98630476D01*
X109993333Y-98820952D01*
X109993333Y-98963809D01*
X109945714Y-99154285D01*
X109898095Y-99249523D01*
X109802857Y-99344761D01*
X109660000Y-99392380D01*
X109421904Y-99392380D01*
X110374285Y-98487619D02*
X110421904Y-98440000D01*
X110517142Y-98392380D01*
X110755238Y-98392380D01*
X110850476Y-98440000D01*
X110898095Y-98487619D01*
X110945714Y-98582857D01*
X110945714Y-98678095D01*
X110898095Y-98820952D01*
X110326666Y-99392380D01*
X110945714Y-99392380D01*
%TO.C,R3*%
X105172380Y-68206666D02*
X104696190Y-68540000D01*
X105172380Y-68778095D02*
X104172380Y-68778095D01*
X104172380Y-68397142D01*
X104220000Y-68301904D01*
X104267619Y-68254285D01*
X104362857Y-68206666D01*
X104505714Y-68206666D01*
X104600952Y-68254285D01*
X104648571Y-68301904D01*
X104696190Y-68397142D01*
X104696190Y-68778095D01*
X104172380Y-67873333D02*
X104172380Y-67254285D01*
X104553333Y-67587619D01*
X104553333Y-67444761D01*
X104600952Y-67349523D01*
X104648571Y-67301904D01*
X104743809Y-67254285D01*
X104981904Y-67254285D01*
X105077142Y-67301904D01*
X105124761Y-67349523D01*
X105172380Y-67444761D01*
X105172380Y-67730476D01*
X105124761Y-67825714D01*
X105077142Y-67873333D01*
%TO.C,C1*%
X100207142Y-78906666D02*
X100254761Y-78954285D01*
X100302380Y-79097142D01*
X100302380Y-79192380D01*
X100254761Y-79335238D01*
X100159523Y-79430476D01*
X100064285Y-79478095D01*
X99873809Y-79525714D01*
X99730952Y-79525714D01*
X99540476Y-79478095D01*
X99445238Y-79430476D01*
X99350000Y-79335238D01*
X99302380Y-79192380D01*
X99302380Y-79097142D01*
X99350000Y-78954285D01*
X99397619Y-78906666D01*
X100302380Y-77954285D02*
X100302380Y-78525714D01*
X100302380Y-78240000D02*
X99302380Y-78240000D01*
X99445238Y-78335238D01*
X99540476Y-78430476D01*
X99588095Y-78525714D01*
%TO.C,D1*%
X119112380Y-69318095D02*
X118112380Y-69318095D01*
X118112380Y-69080000D01*
X118160000Y-68937142D01*
X118255238Y-68841904D01*
X118350476Y-68794285D01*
X118540952Y-68746666D01*
X118683809Y-68746666D01*
X118874285Y-68794285D01*
X118969523Y-68841904D01*
X119064761Y-68937142D01*
X119112380Y-69080000D01*
X119112380Y-69318095D01*
X119112380Y-67794285D02*
X119112380Y-68365714D01*
X119112380Y-68080000D02*
X118112380Y-68080000D01*
X118255238Y-68175238D01*
X118350476Y-68270476D01*
X118398095Y-68365714D01*
%TO.C,R2*%
X136312380Y-80906666D02*
X135836190Y-81240000D01*
X136312380Y-81478095D02*
X135312380Y-81478095D01*
X135312380Y-81097142D01*
X135360000Y-81001904D01*
X135407619Y-80954285D01*
X135502857Y-80906666D01*
X135645714Y-80906666D01*
X135740952Y-80954285D01*
X135788571Y-81001904D01*
X135836190Y-81097142D01*
X135836190Y-81478095D01*
X135407619Y-80525714D02*
X135360000Y-80478095D01*
X135312380Y-80382857D01*
X135312380Y-80144761D01*
X135360000Y-80049523D01*
X135407619Y-80001904D01*
X135502857Y-79954285D01*
X135598095Y-79954285D01*
X135740952Y-80001904D01*
X136312380Y-80573333D01*
X136312380Y-79954285D01*
D11*
%TO.C,C2*%
X112836252Y-72925000D02*
X112313748Y-72925000D01*
X112836252Y-74395000D02*
X112313748Y-74395000D01*
%TO.C,R4*%
X99795000Y-95292936D02*
X99795000Y-95747064D01*
X98325000Y-95292936D02*
X98325000Y-95747064D01*
%TO.C,U1*%
X114300000Y-83840000D02*
X112350000Y-83840000D01*
X114300000Y-78720000D02*
X110850000Y-78720000D01*
X114300000Y-78720000D02*
X116250000Y-78720000D01*
X114300000Y-83840000D02*
X116250000Y-83840000D01*
%TO.C,R1*%
X133392936Y-71230000D02*
X133847064Y-71230000D01*
X133392936Y-69760000D02*
X133847064Y-69760000D01*
%TO.C,J1*%
X91440000Y-73660000D02*
X91440000Y-83820000D01*
X92710000Y-83820000D02*
X92710000Y-73660000D01*
X92710000Y-73660000D02*
X85090000Y-73660000D01*
X85090000Y-83820000D02*
X92710000Y-83820000D01*
X85090000Y-73660000D02*
X85090000Y-83820000D01*
%TO.C,D2*%
X108560000Y-97655000D02*
X112620000Y-97655000D01*
X112620000Y-95385000D02*
X108560000Y-95385000D01*
X112620000Y-97655000D02*
X112620000Y-95385000D01*
%TO.C,R3*%
X103805000Y-67812936D02*
X103805000Y-68267064D01*
X102335000Y-67812936D02*
X102335000Y-68267064D01*
%TO.C,C1*%
X100665000Y-81225000D02*
X102535000Y-81225000D01*
X100665000Y-77140000D02*
X100665000Y-81225000D01*
X102535000Y-81225000D02*
X102535000Y-77140000D01*
%TO.C,D1*%
X115705000Y-66120000D02*
X115705000Y-70180000D01*
X117975000Y-70180000D02*
X117975000Y-66120000D01*
X117975000Y-66120000D02*
X115705000Y-66120000D01*
%TO.C,R2*%
X133475000Y-80512936D02*
X133475000Y-80967064D01*
X134945000Y-80512936D02*
X134945000Y-80967064D01*
%TD*%
M02*
